:SAMPLES-PER-SECOND 30
:FULLY-SPECIFIED
:DEGREES
89
root  25.6295 39.1195 15.188 163.343 -88.0112 -163.12
RightUpLeg  -19.7379 -9.0117 -5.90137
RightLeg  6.8725 -2.31535 0.294535
RightFoot  -7.67076 -0.25562 6.33171
RightToes  2.96859e-009 0 -3.6325e-017
Spine  9.82721 -1.99222 -0.946671
Spine1  3.03817 -2.43778 1.33174
HEad  -5.3642 6.16884 -3.4123
LeftShoulder1  -0.00999811 3.54306 -18.5283
LeftArm  10.6914 -31.6106 -69.5837
LeftForeArm  117.587 -72.3663 -141.574
LeftHand  -0.0262089 0.347667 0.572452
RightShoulder  -0.315905 -4.52902 23.7058
RightArm  8.21367 -5.81596 48.3523
RightForeArm  14.831 30.6391 5.87178
RightHand  -0.38943 1.91904 -6.3554
LeftUpLeg  6.7634 10.2673 4.71599
LeftLeg  8.3668 7.33919 -1.00121
LeftFoot  -14.8485 -0.0444428 -4.34881
LeftToes  3.24686e-010 -7.02549e-012 1.39809e-011
90
root  25.0207 38.9583 15.0013 179.58 -87.1167 -179.321
RightUpLeg  -19.2558 -8.69549 -5.8656
RightLeg  6.00616 -2.75927 0.313938
RightFoot  -7.03233 -0.291243 6.41024
RightToes  2.96859e-009 0 -3.6325e-017
Spine  9.39461 -2.12769 -1.07931
Spine1  3.55182 -2.66568 1.60891
HEad  -6.1019 7.00596 -3.84649
LeftShoulder1  0.0134165 3.4495 -18.2633
LeftArm  11.8071 -32.6271 -71.4109
LeftForeArm  115.817 -71.6338 -142.95
LeftHand  -0.0507781 0.205079 1.08485
RightShoulder  -0.313541 -4.52216 23.6726
RightArm  8.72883 -5.92807 48.5988
RightForeArm  14.4702 28.2284 5.31667
RightHand  -0.342257 1.71058 -5.7646
LeftUpLeg  7.76289 10.3151 4.56798
LeftLeg  8.71215 8.18252 -0.908491
LeftFoot  -15.7384 -0.0979236 -4.99676
LeftToes  3.24686e-010 -7.02549e-012 1.39809e-011
91
root  24.318 38.8322 14.7217 177.202 -86.872 -177.401
RightUpLeg  -18.132 -8.52098 -5.34689
RightLeg  6.58389 -2.92653 0.313643
RightFoot  -5.42203 -0.308557 5.44382
RightToes  2.96859e-009 0 -3.6325e-017
Spine  9.82564 -2.49596 -0.92052
Spine1  3.48162 -3.26829 2.535
HEad  -6.23784 8.50558 -4.27316
LeftShoulder1  -0.00632316 3.52757 -18.6324
LeftArm  12.8117 -33.0993 -72.6099
LeftForeArm  116.272 -71.0832 -144.164
LeftHand  0.00598383 0.888911 -0.259659
RightShoulder  -0.267391 -4.36549 23.7588
RightArm  9.86002 -6.39801 48.39
RightForeArm  13.9476 25.0867 4.63569
RightHand  -0.319371 2.02076 -5.18229
LeftUpLeg  9.62887 10.662 5.50388
LeftLeg  8.57357 7.66633 -0.98464
LeftFoot  -16.4879 -0.163778 -5.84872
LeftToes  3.24686e-010 -7.02549e-012 1.39809e-011
92
root  23.6085 38.7754 14.4252 171.955 -86.5583 -172.118
RightUpLeg  -18.3782 -8.49826 -4.43325
RightLeg  8.30894 -2.71202 0.343215
RightFoot  -1.76616 -0.279313 3.09762
RightToes  2.96859e-009 0 -3.6325e-017
Spine  9.69359 -2.78939 0.773463
Spine1  3.82083 -3.41861 2.27816
HEad  -6.22736 9.22674 -4.64349
LeftShoulder1  0.0594477 3.26279 -17.9131
LeftArm  13.5324 -33.4125 -74.0496
LeftForeArm  115.304 -70.8507 -144.498
LeftHand  0.00511385 0.72708 -0.233484
RightShoulder  -0.336645 -4.57212 24.4513
RightArm  11.0826 -6.6553 47.8211
RightForeArm  12.0937 21.1171 4.11973
RightHand  -0.302144 2.07577 -4.88079
LeftUpLeg  11.0149 10.7262 6.3491
LeftLeg  8.1879 7.52465 -0.590696
LeftFoot  -16.7222 -0.222863 -6.87218
LeftToes  3.24686e-010 -7.02549e-012 1.39809e-011
93
root  22.8397 38.6489 14.0371 163.786 -85.7245 -163.941
RightUpLeg  -18.9634 -8.37733 -3.07448
RightLeg  10.9102 -1.38172 0.305105
RightFoot  1.67343 -0.378199 3.42062
RightToes  2.96859e-009 0 -3.6325e-017
Spine  9.68703 -2.79178 2.29241
Spine1  4.06517 -3.40047 2.6249
HEad  -6.01424 9.77513 -5.70379
LeftShoulder1  0.0509042 3.29863 -18.289
LeftArm  14.1915 -33.7897 -74.9769
LeftForeArm  115.056 -70.4233 -145.29
LeftHand  -0.00642225 0.668635 0.0622117
RightShoulder  -0.345539 -4.59904 24.4692
RightArm  9.86584 -6.85628 47.5724
RightForeArm  13.3295 16.6633 4.15982
RightHand  -0.274767 1.84088 -4.58783
LeftUpLeg  11.7465 11.7394 8.04486
LeftLeg  9.81792 6.47679 -0.0637516
LeftFoot  -17.3888 -0.323618 -8.05119
LeftToes  3.24686e-010 -7.02549e-012 1.39809e-011
94
root  21.9744 38.4917 13.5652 156.674 -84.794 -157.236
RightUpLeg  -19.0617 -8.47996 -1.42547
RightLeg  14.3476 -0.469148 0.0678437
RightFoot  1.46164 -0.33249 3.03509
RightToes  2.96859e-009 0 -3.6325e-017
Spine  10.1327 -2.87563 3.45704
Spine1  3.95118 -3.5363 3.35785
HEad  -5.84805 10.4818 -6.29088
LeftShoulder1  0.00212476 3.49576 -18.7871
LeftArm  14.2985 -33.8229 -75.254
LeftForeArm  115.274 -69.8441 -146.385
LeftHand  -0.000228686 1.51844 -0.228311
RightShoulder  -0.246145 -4.29066 23.9644
RightArm  7.32811 -7.31128 47.5261
RightForeArm  15.5628 11.9813 4.33953
RightHand  -0.247675 1.15265 -4.52307
LeftUpLeg  12.2594 13.0215 10.2345
LeftLeg  13.1775 4.57217 0.774707
LeftFoot  -17.9939 -0.529614 -10.9365
LeftToes  3.24686e-010 -7.02549e-012 1.39809e-011
95
root  21.1289 38.3611 13.0363 150.964 -84.1185 -152.208
RightUpLeg  -18.8933 -8.61775 0.146728
RightLeg  18.0681 0.326297 -0.00445687
RightFoot  -0.0811646 -0.0959289 0.96093
RightToes  2.96859e-009 0 -3.6325e-017
Spine  10.4828 -3.06578 4.85452
Spine1  4.53462 -3.62703 3.83833
HEad  -4.94729 11.3899 -5.94925
LeftShoulder1  0.0187835 3.42946 -18.6441
LeftArm  14.365 -34.3178 -75.7154
LeftForeArm  114.871 -69.6575 -146.666
LeftHand  -0.0132528 2.03394 0.066197
RightShoulder  -0.248776 -4.29185 24.2352
RightArm  5.52649 -7.66075 47.1485
RightForeArm  16.5027 7.7867 4.08297
RightHand  -0.234138 1.39874 -4.14747
LeftUpLeg  11.9733 12.802 12.2076
LeftLeg  18.226 3.20865 1.53344
LeftFoot  -17.5438 -0.697024 -14.7516
LeftToes  3.24686e-010 -7.02549e-012 1.39809e-011
